PathFileType	4	(X/Y/Z)	Patient4_TMGait_0pt4_03_left_36.trc.trc
DataRate	CameraRate	NumFrames	NumMarkers	Units	OrigDataRate	OrigDataStartFrame	OrigNumFrames
72.164948453608	72.164948453608	4	33	mm	72.164948453608	106	       141
Frame#	Time	Sacral			L.Shoulder			Chest			R.Shoulder			Neck			R.ASIS			L.ASIS			R.Thigh.Superior			R.Thigh.Lateral			R.Thigh.Inferior			R.Patella			L.Thigh.Superior			L.Thigh.Lateral			L.Thigh.Inferior			L.Patella			L.Shank.Superior			L.Shank.Lateral			L.Shank.Inferior			R.Shank.Superior			R.Shank.Lateral			R.Shank.Inferior			R.Heel			R.Midfoot.Superior			R.Midfoot.Lateral			R.Toe			L.Heel			L.Midfoot.Lateral			L.Midfoot.Superior			L.Toe			L.Elbow			L.Wrist			R.Elbow			R.Wrist			
		X1	Y1	Z1	X2	Y2	Z2	X3	Y3	Z3	X4	Y4	Z4	X5	Y5	Z5	X6	Y6	Z6	X7	Y7	Z7	X8	Y8	Z8	X9	Y9	Z9	X10	Y10	Z10	X11	Y11	Z11	X12	Y12	Z12	X13	Y13	Z13	X14	Y14	Z14	X15	Y15	Z15	X16	Y16	Z16	X17	Y17	Z17	X18	Y18	Z18	X19	Y19	Z19	X20	Y20	Z20	X21	Y21	Z21	X22	Y22	Z22	X23	Y23	Z23	X24	Y24	Z24	X25	Y25	Z25	X26	Y26	Z26	X27	Y27	Z27	X28	Y28	Z28	X29	Y29	Z29	X30	Y30	Z30	X31	Y31	Z31	X32	Y32	Z32	X33	Y33	Z33	

106	49.105000000000	864.430013756336	1007.324793722466	546.719839787384	1012.159752998666	1440.249749671093	351.714380098605	1140.563657123972	1370.201508888180	493.224368371419	1085.128960787207	1438.728524017473	680.430826870729	1018.300692807222	1498.527227596928	510.082615252473	1107.500248975166	940.687482297067	627.066576048762	1052.357647158975	970.136121536112	359.771606245374	1129.342227663844	734.878918074473	590.865215696440	1047.000471213430	629.943218054081	660.456678301785	1109.266973270737	573.536518484474	572.240561030496	1102.006332763975	485.992986973186	578.409593047152	1142.346799217612	790.785482221302	373.362388269609	1094.901044479819	663.899619222312	295.805062245289	1207.398357636179	606.958518111088	343.092921549302	1226.103244402653	522.837641322223	330.417519042602	1172.736907978182	449.961689050938	326.043614881801	1040.202930522482	376.491295962735	293.815568189635	1068.950404108885	245.173386810122	337.663629860312	1068.102019577488	399.448816550718	588.227469556509	994.141772110490	300.225786321520	653.129721994884	1024.255586314979	203.246896112759	586.683407559505	881.226226845441	43.133755236502	561.995814120147	1051.833920640243	96.149028488949	595.041642404256	965.353255914083	37.090656880484	635.610078639384	1173.392634128809	43.659381366779	621.029372693628	910.270271152778	133.438224656789	395.863528197704	963.242356574156	106.794088835508	304.996739525625	1065.319455428233	139.706463326596	313.159333726273	1161.532126511668	51.944332619961	264.747592870447	932.603861553753	1097.024701673025	236.667891734758	1010.371785470273	849.535792540433	187.615040599024	1095.118638124897	1099.893373699508	818.932386040428	1280.387253650899	941.456958835360	733.525021843452	
107	49.118857142857	863.530009261142	1008.082281976662	548.657684747333	1011.595986154840	1440.191471214190	352.473891911223	1141.050313325650	1369.613459562733	492.762306823812	1087.823271377160	1438.506506096375	680.489962981600	1019.484524368609	1498.467733132539	510.820883545494	1106.978851548135	940.153952520397	626.670144688235	1049.799151466585	970.498698507953	359.917863737926	1126.871695550371	734.222304545374	590.462548531945	1044.139541913012	629.826077377253	660.685627691525	1105.352901644224	572.952020634621	572.220527441066	1097.509914515594	485.614154421331	578.565390199620	1139.812330323500	791.841441058579	373.542895957315	1092.933336378693	664.744565285155	296.046301435841	1205.219727488356	608.285235654568	343.824396394645	1225.230405406605	525.765067009864	330.780774705927	1175.479424170457	452.011191266931	325.798838419467	1047.843600497663	371.282958290123	292.574109630394	1084.275304364187	241.414857610959	335.725614455467	1063.420571609442	399.269620279029	588.407768874353	989.288307078564	300.231601820496	653.412474902381	1019.043578703215	203.199596671843	586.862192127565	875.655494521185	43.211753305696	562.030671906327	1046.316594869562	96.065425617596	595.092963333236	959.794184080682	37.087036520673	635.645863902969	1167.853051456431	43.420520361970	621.118259968526	932.877802029514	119.123726001245	392.769434490284	987.447358568561	97.277319071094	301.676163968416	1087.119535303162	136.605203487263	310.368690416577	1188.855308142169	56.138057313309	261.120091535264	930.783674102790	1097.141273937365	237.553243543373	1006.319985024305	849.229921666692	187.406228561273	1099.055409500071	1099.264274177941	817.873038240077	1285.448146777176	945.811457284023	726.914368859411	
108	49.132714285714	862.616906023619	1008.763026250375	550.329026976391	1011.188912645342	1440.061805823105	353.039804208168	1141.568251145885	1368.902481392953	492.178743274287	1090.429040056508	1438.118006226486	680.383994599547	1020.721187698895	1498.321319120228	511.378443423152	1106.384332275560	939.597597554543	626.144854987757	1047.370975563725	970.724357827626	359.902286097472	1124.406255513977	733.555954110558	590.007172177217	1041.312599811311	629.678908343730	660.858386200466	1101.508339687297	572.362276012010	572.165472364521	1093.112728950085	485.225699818909	578.717274467895	1136.998658717949	792.327801512341	373.767963810943	1090.432964767139	665.118042096644	296.304427227419	1202.243782807741	608.845313509411	344.808502861822	1223.504226775423	528.164093247180	331.532575034612	1177.579070836632	453.774157516923	325.799949297662	1055.678301677042	365.856634163436	290.844512069285	1099.683426710188	237.975971975250	333.629513083197	1058.816052261674	399.054495234129	588.548629606962	984.482746418566	300.229336337971	653.660851558906	1013.859920232220	203.135797675115	587.019676656447	870.082146727828	43.294382446691	562.065728533596	1040.793447742349	95.969912196533	595.120079859736	954.235141500028	37.085397260975	635.677329973704	1162.314865527698	43.190645049225	621.202780203806	956.139895667963	105.464027491521	388.713397646978	1012.533698944784	88.496862006524	297.758857277049	1109.308698968855	134.112538664355	307.509334669364	1216.377363203995	61.237056899681	258.117354279676	929.024299420878	1097.203703100864	238.267427697435	1002.550275708907	848.937871317550	187.115502603940	1103.062496225826	1098.395864661236	816.471158626576	1290.456851483712	950.226014548049	719.902630306689	
109	49.146571428571	861.718411100390	1009.367337446587	551.715859644886	1010.947403650643	1439.873153275542	353.395437749486	1142.108139478383	1368.092640910728	491.482371589691	1092.894981451650	1437.587693462002	680.112125884884	1021.975983135830	1498.105286219417	511.724672219122	1105.740948125891	939.039376547394	625.525743084143	1045.115422592797	970.812708049034	359.735976649048	1121.967306021582	732.880617894282	589.539477360266	1038.505834633866	629.509166464395	660.980597086774	1097.738437129488	571.767882043268	572.093120521354	1088.812192711794	484.832855834769	578.872343423773	1133.946478597392	792.240051196179	374.021286187886	1087.417785575425	665.041720174587	296.531009578901	1198.533995088653	608.656592988802	345.939118348154	1220.972308282022	530.028859041458	332.605549561490	1179.020553921061	455.278918523823	326.013979017985	1063.597644632079	360.412519687264	288.677315833034	1114.923042382481	235.038202113919	331.455610218887	1054.282159959882	398.807602741883	588.653690500857	979.714297847978	300.221612067025	653.872935945526	1008.703262009199	203.056965097199	587.154419050785	864.508766703983	43.380625739348	562.100840456443	1035.262672741263	95.865460520361	595.124385141969	948.675407129336	37.086568071453	635.704681877569	1156.776779140782	42.975877859879	621.282600708120	979.674656878366	92.875134454530	383.888081361567	1038.101219709012	80.715316152576	293.456797127987	1131.545479159808	132.373020250629	304.718324304254	1243.659738747022	67.204889379712	255.958488232564	927.334329445850	1097.232334707642	238.789724378972	999.080923267645	848.673271781856	186.735434488560	1107.146054760955	1097.322149908630	814.718458320918	1295.435954986489	954.754964436501	712.517923354226	
